<?xml version="1.0" encoding="iso-8859-1"?>
<!-- Generator: Adobe Illustrator 19.0.0, SVG Export Plug-In . SVG Version: 6.00 Build 0)  -->
<svg version="1.1" id="Capa_1" xmlns="http://www.w3.org/2000/svg" xmlns:xlink="http://www.w3.org/1999/xlink" x="0px" y="0px"
	 viewBox="0 0 423.254 423.254" style="enable-background:new 0 0 423.254 423.254;" xml:space="preserve">
<rect x="6.827" y="269.651" style="fill:#ED5481;" width="81.92" height="116.05"/>
<path d="M88.747,392.534H6.827c-3.773,0-6.827-3.057-6.827-6.827V269.654c0-3.77,3.053-6.827,6.827-6.827h81.92
	c3.773,0,6.827,3.057,6.827,6.827v116.053C95.573,389.478,92.52,392.534,88.747,392.534z M13.653,378.881H81.92v-102.4H13.653
	V378.881z"/>
<rect x="116.05" y="98.991" style="fill:#26BBEC;" width="81.92" height="286.72"/>
<path d="M197.973,392.534h-81.92c-3.773,0-6.827-3.057-6.827-6.827V98.988c0-3.77,3.053-6.827,6.827-6.827h81.92
	c3.773,0,6.827,3.057,6.827,6.827v286.72C204.8,389.478,201.747,392.534,197.973,392.534z M122.88,378.881h68.267V105.814H122.88
	V378.881z"/>
<rect x="225.28" y="58.031" style="fill:#9DFB46;" width="81.92" height="327.68"/>
<path d="M314.027,392.534h-95.573V51.201h95.573V392.534z M232.107,378.881h68.267V64.854h-68.267V378.881z"/>
<rect x="334.51" y="215.041" style="fill:#FBAD4A;" width="81.92" height="170.67"/>
<path d="M416.427,392.534h-81.92c-3.773,0-6.827-3.057-6.827-6.827V215.041c0-3.77,3.053-6.827,6.827-6.827h81.92
	c3.773,0,6.827,3.057,6.827,6.827v170.667C423.253,389.478,420.2,392.534,416.427,392.534z M341.333,378.881H409.6V221.868h-68.267
	V378.881z"/>
<path d="M88.747,256.001H6.827c-3.774,0-6.827-3.057-6.827-6.827s3.053-6.827,6.827-6.827h81.92c3.773,0,6.827,3.057,6.827,6.827
	S92.52,256.001,88.747,256.001z"/>
<path d="M197.973,85.334h-81.92c-3.773,0-6.827-3.057-6.827-6.827s3.053-6.827,6.827-6.827h81.92c3.773,0,6.827,3.057,6.827,6.827
	S201.747,85.334,197.973,85.334z"/>
<path d="M307.2,44.374h-81.92c-3.773,0-6.827-3.057-6.827-6.827s3.053-6.827,6.827-6.827h81.92c3.773,0,6.827,3.057,6.827,6.827
	C314.027,41.318,310.973,44.374,307.2,44.374z"/>
<path d="M416.427,201.388h-81.92c-3.773,0-6.827-3.057-6.827-6.827c0-3.77,3.053-6.827,6.827-6.827h81.92
	c3.773,0,6.827,3.057,6.827,6.827C423.253,198.331,420.2,201.388,416.427,201.388z"/>
<g>
</g>
<g>
</g>
<g>
</g>
<g>
</g>
<g>
</g>
<g>
</g>
<g>
</g>
<g>
</g>
<g>
</g>
<g>
</g>
<g>
</g>
<g>
</g>
<g>
</g>
<g>
</g>
<g>
</g>
</svg>
